<?xml version="1.0" encoding="utf-8"?>
<!-- Generator: Adobe Illustrator 22.0.1, SVG Export Plug-In . SVG Version: 6.00 Build 0)  -->
<svg version="1.1" id="レイヤー_1" xmlns="http://www.w3.org/2000/svg" xmlns:xlink="http://www.w3.org/1999/xlink" x="0px"
	 y="0px" viewBox="0 0 512 512" style="enable-background:new 0 0 512 512;" xml:space="preserve">
<style type="text/css">
	.st0{fill:#FFFFFF;}
	.st1{fill:#F45858;}
</style>
<path d="M223.5,166.1c5.5,15.6,13.1,30.8,16,46.9c4.5,25.1,5.7,50.8,8.4,76.2c0.6,5.3,1.4,10.6,2.1,15.9
	c1.4,10.4,3.8,18.9,17.7,18.5c4.1-0.1,10,6,11.9,10.6c1.2,2.8-2.7,9.1-6,12.1c-13.8,12.8-26.1,10.5-38.4-4.6
	c-11.9-14.6-12.3-31.5-10.1-48.1c4.8-37.2-1.1-73.3-7-109.6c-0.9-5.4-0.6-11-0.8-16.4C219.3,167.1,221.4,166.6,223.5,166.1z"/>
<path d="M138.7,247.3c-27.8,2.3-48-8.7-61.9-31.7c-6.1-10.1-6.6-20.7,3.8-27.5c10.8-7,22.6-14.6,34.8-16.7c20-3.5,41.1-5.7,61.2-3.4
	c31,3.6,39.7,32.6,19.1,56.5C180.4,242.3,160.3,247.7,138.7,247.3z"/>
<path class="st0" d="M159.3,172.2c-19.9,3.5-38.8,5.7-57,10.4c-22.9,5.9-26.7,23.7-10.5,40.8c16.9,17.8,37.9,17.4,59.6,14.9
	c30.1-3.5,42.4-15,46.5-44.9c0.5-3.7-2.3-10.4-5.1-11.5C181.8,177.8,170.2,175.2,159.3,172.2z"/>
<path d="M377.7,222.3c-21.5-0.3-40.1-3-54.1-16.8c-6.4-6.3-11.5-15.2-14.1-23.8c-3.7-11.8,2.4-22.1,13.8-27.1
	c32.5-14.2,66-13.3,99.4-4.8c15.4,3.9,21.4,20.9,13.2,35.1C422.5,208,404.3,224,377.7,222.3z"/>
<path class="st0" d="M385,150.9c-14.4,1.7-26,2.6-37.4,4.5c-6.1,1-11.9,3.4-17.8,5.3c-10,3.2-13.5,11.1-11.9,20.4
	c1.7,9.9,6.2,18.3,16.3,23.4c16.6,8.3,33.9,10.3,51.8,8.2c22.9-2.6,37.4-15.4,43.9-37.5c2.6-8.9,0.1-14.9-8.8-17
	C408.2,155,395.2,152.9,385,150.9z"/>
<path d="M404.3,92.3c-39.5,4.2-76.1,8-116.6,12.3c5.8-4.4,9.3-9,13.7-10.2c30.2-7.9,61-9.3,91.9-7.2C396.4,87.5,399.3,90,404.3,92.3
	z"/>
<path d="M185,118.3c-32.7,3.3-64,6.5-95.5,9.7C96.6,112.5,169.5,104.4,185,118.3z"/>
<path d="M316.4,392.5c-14.3,32.8-51.6,38.7-71,28.5c-3.2-1.7-7-3.3-9.1-6c-3.1-3.9-4.9-8.7-7.2-13.2c4.3-1.8,8.4-4.6,12.8-5.2
	c17.5-2.3,35.1-4.2,52.7-5.6C301.2,390.5,308,391.9,316.4,392.5z"/>
<path class="st1" d="M303.8,396c-22.5,3.2-43.4,6.1-65.1,9.1C254.6,424.4,293.9,419,303.8,396z"/>
<polygon points="152.4,191.4 156.1,192.9 156.1,196.6 152.4,198.8 148,195.1 148,193.3 "/>
<polygon points="367.6,168.5 371.3,170 371.3,173.7 367.6,175.9 363.2,172.2 363.2,170.4 "/>
</svg>
