<?xml version="1.0" encoding="utf-8"?>
<!-- Generator: Adobe Illustrator 22.0.1, SVG Export Plug-In . SVG Version: 6.00 Build 0)  -->
<svg version="1.1" id="レイヤー_1" xmlns="http://www.w3.org/2000/svg" xmlns:xlink="http://www.w3.org/1999/xlink" x="0px"
	 y="0px" viewBox="0 0 1024 420" style="enable-background:new 0 0 1024 420;" xml:space="preserve">
<style type="text/css">
	.st0{fill:#FFFFFF;}
</style>
<path class="st0" d="M961.2,81.6H815.7V50.6c0-17.5-12.2-29.7-29.7-29.7h-10.4c-3.9,0-7.6,1-10.8,2.7c-3.2-1.7-6.9-2.7-10.8-2.7
	h-8.2c-6.7,0-12.6,2.8-16.7,7.3c-0.1-0.1-0.2-0.3-0.3-0.4c-4-5.8-10.6-9.2-18-9.2h-8.2c-5.1,0-10,1.6-13.9,4.5
	c-3.7-2.8-8.4-4.4-13.5-4.4h-8.2c-4.5,0-8.7,1.3-12.1,3.5c-3.5-2.2-7.6-3.5-12.2-3.5h-8.2c-2.6,0-5,0.4-7.3,1.2
	c-2.4-0.8-4.9-1.3-7.6-1.3H592c-4.1,0-10.1,1-16.1,5.6c-3.9-3.4-9.1-5.5-14.8-5.5h-8.2c-4.2,0-8,1.1-11.3,3c-3.3-1.9-7.2-3-11.4-3
	H522c-3.2,0-6.3,0.7-9,1.8c-3.3-1.9-7.2-3-11.4-3h-7c-4.9,0-9.4,1.5-13.1,4.1h-1.1c-0.9,0-1.8,0.1-2.7,0.2l-6.3-2.5
	c-2.9-1.2-5.8-1.8-8.8-1.8c-11.9,0-21.2,9.5-21.2,21.7v1.2h-24.2v-4.1c0-12.6-9.8-22.4-22.4-22.4h-4.6c-1.2,0-2.4,0.1-3.6,0.3
	c-1.2-0.2-2.4-0.3-3.6-0.3h-4.6c-5.3,0-10.2,1.8-14,4.8h-20.6c-3.7,0-7.2,0.9-10.3,2.4c-3.5-2.3-7.7-3.6-12.3-3.6h-8.2
	c-7.9,0-14.7,3.9-18.7,9.9h-4.2c-4.1-5.3-10.5-8.7-17.8-8.7h-8.2c-12.3,0-22,9.5-22.4,21.7h-16.7c-12.6,0-22.4,9.8-22.4,22.4v3.9
	c0,11.5,8.4,20.8,19.5,22.2c0.1,7.5,3.8,14,9.5,18h-33.9c-1.9-15-13.5-25.2-29.4-25.2h-32.9c-15.9,0-27.4,10.1-29.4,25H57.2
	c-17.5,0-29.7,12.2-29.7,29.7v15.5c0,5.4,1.2,10.3,3.3,14.5c-2.1,4.2-3.3,9.1-3.3,14.6v15.5c0,9.2,3.3,16.9,9,22.1
	c-5.9,9.3-9,21.1-9,35v18.4c0,36.8,21.9,58.7,58.7,58.7h53.2c31.8,0,52.5-16.4,57.5-44.5l31.4,14.7c4.9,2.5,9.5,3.6,14.1,3.6
	c14.9,0,23.2-11.6,24.2-23.9c4.4,2.3,9.4,4,14.9,4.9c-0.1,1.2-0.2,2.4-0.2,3.7v12.9c0,5.9,1.5,11.1,4.1,15.5
	c-1.8-0.4-3.6-0.7-5.4-0.7c-1.4,0-2.8,0.1-4.1,0.4c-1.2-0.2-2.3-0.3-3.5-0.3c-3.3,0-6.7,0.8-9.7,2.2c-4.3,2-7.8,5.3-10.1,9.4
	c-3.9,3.6-6.5,8.4-7.2,13.5c-0.1,0.6-0.1,1.2-0.2,1.8c-0.4,0.9-0.8,1.9-1.1,2.8c-2.5,2-4.4,4.5-5.8,7.4c-3.4,3.3-5.7,7.7-6.5,12.5
	l-0.1,0.5c-0.6,4.2-0.1,8.4,1.5,12.1c0.4,5.3,2.7,10.3,6.5,14.2c0.6,0.6,1.2,1.1,1.8,1.6c1,1.7,2.2,3.3,3.6,4.7l0.6,0.6l0.7,0.6
	c5.4,4.5,11,5.4,14.7,5.4h1.1l10.6-1l15.3-1.6l0.6-0.1c3.6-0.6,6.9-2,9.7-4c3.2,2,7,3.2,11.2,3.5l0.6,0h8.8c1.7,0,3.3-0.2,4.8-0.5
	c1.5,0.3,3.1,0.5,4.8,0.5h8.2c1.7,0,3.3-0.2,4.8-0.5c1.5,0.3,3.1,0.5,4.8,0.5h8.2c2.4,0,4.8-0.4,7-1.1c2.7,0.7,5.5,1.1,8.5,1.1h27.1
	c1.5,0,3-0.1,4.4-0.4c1.3,0.2,2.5,0.3,3.9,0.3h27.1c4.1,0,7.9-0.7,11.3-1.9c3.4,1.3,7.2,1.9,11.3,1.9h27.1c2.4,0,4.8-0.4,6.9-1.1
	c2.6,0.7,5.4,1.1,8.4,1.2l20.1,0c9.6,0,17.7-3.7,22.9-10c5.3,6.2,13.3,9.9,22.9,9.9l20-0.1h7.1c2.4,0,4.7-0.4,6.8-1
	c2.7,0.7,5.7,1.1,8.8,1.1l20-0.1h7.1c1.3,0,2.6-0.1,3.8-0.3c1.4,0.3,2.9,0.4,4.4,0.4h8.2c1.4,0,2.8-0.1,4.2-0.4
	c1.3,0.2,2.7,0.4,4.2,0.4h8.2c2.4,0,4.8-0.4,7-1.1c2.6,0.7,5.4,1.1,8.4,1.2l20.1,0c6.4,0,12.1-1.6,16.7-4.6
	c3.1,2.6,6.9,4.4,11.1,5.1l0.6,0.1l15.1,1.6l10.8,1h1.1c6.1,0,11.7-2.4,16-6.7c1.4-1.4,2.6-2.9,3.5-4.6c1.1-0.9,2.1-1.9,3.1-3
	c3.1-3.7,4.9-8.1,5.2-12.8c1.6-3.7,2.1-7.7,1.6-11.7l-0.2-1.5l-0.4-1.5c-1.1-3.9-3.2-7.4-6-10.2c-1.4-2.9-3.5-5.5-6.1-7.6
	c-0.3-1-0.7-2-1.2-3c0-0.4-0.1-0.9-0.1-1.3c-0.6-4.5-2.6-8.7-5.5-12c1.4,0.2,2.9,0.3,4.4,0.3h189.4c17.5,0,29.7-12.2,29.7-29.7
	V111.4C990.9,93.9,978.7,81.6,961.2,81.6z"/>
<path d="M225.5,66.7v-3.9c0-1.6,0.8-2.4,2.4-2.4h34.3c1.6,0,2.4-0.8,2.4-2.4V41.1c0-1.6,0.8-2.4,2.4-2.4h8.2c1.6,0,2.4,0.8,2.4,2.4
	v18.4c0,6.4-3.2,9.7-9.7,9.7H258v19.3c0,1.6-0.8,2.4-2.4,2.4h-8.2c-1.6,0-2.4-0.8-2.4-2.4V69.1h-17
	C226.4,69.1,225.5,68.3,225.5,66.7z"/>
<path d="M287.4,88.4v-3.9c0-1.6,0.8-2.4,2.4-2.4h21.3c1.6,0,2.4-0.8,2.4-2.4V56.1h-23.7c-1.6,0-2.4-0.8-2.4-2.4v-3.9
	c0-1.6,0.8-2.4,2.4-2.4h23.7v-7.5c0-1.6,0.8-2.4,2.4-2.4h8.2c1.6,0,2.4,0.8,2.4,2.4v7.5h10.6c1.6,0,2.4,0.8,2.4,2.4v3.9
	c0,1.6-0.8,2.4-2.4,2.4h-10.6v25.1c0,6.4-3.2,9.7-9.7,9.7h-27.1C288.2,90.8,287.4,90,287.4,88.4z"/>
<path d="M346.7,38.7h30.2v6.5c0,0.8,0.1,1.6,0.3,2.2h-30.5c-1.6,0-2.4-0.8-2.4-2.4v-3.9C344.3,39.5,345.1,38.7,346.7,38.7z
	 M396.5,50v38.4c0,1.6-0.8,2.4-2.4,2.4h-47.3c-1.6,0-2.4-0.8-2.4-2.4v-3.9c0-1.6,0.8-2.4,2.4-2.4h36.7V50H396.5z M388.3,45.7
	c0,1.6-0.8,2.4-2.4,2.4h-4.6c-1.6,0-2.4-0.8-2.4-2.4v-9.4c0-1.6,0.8-2.4,2.4-2.4h4.6c1.6,0,2.4,0.8,2.4,2.4V45.7z M400.1,45.7
	c0,1.6-0.8,2.4-2.4,2.4h-4.6c-1.6,0-2.4-0.8-2.4-2.4v-9.4c0-1.6,0.8-2.4,2.4-2.4h4.6c1.6,0,2.4,0.8,2.4,2.4V45.7z"/>
<path d="M404.9,66.7v-3.9c0-1.6,0.8-2.4,2.4-2.4h47.3c1.6,0,2.4,0.8,2.4,2.4v3.9c0,1.6-0.8,2.4-2.4,2.4h-47.3
	C405.7,69.1,404.9,68.3,404.9,66.7z"/>
<path d="M464.3,43.1v-3.9c0-1.6,0.8-2.1,2.4-1.4l9.4,3.7c1.6,0.6,2.4,1.8,2.4,3.4v3.9c0,1.6-0.8,2.1-2.4,1.4l-9.4-3.7
	C465.1,45.8,464.3,44.7,464.3,43.1z M464.3,54.9V51c0-1.6,0.8-2.1,2.4-1.4l9.4,3.7c1.6,0.6,2.4,1.8,2.4,3.4v3.9
	c0,1.6-0.8,2.1-2.4,1.4l-9.4-3.7C465.1,57.6,464.3,56.5,464.3,54.9z M464.3,88.4v-3.9c0-1.6,0.4-2.4,1.2-2.4c0.8,0,1.2-0.8,1.2-2.4
	V67.2c0-1.6,0.8-2.4,2.4-2.4h7c1.6,0,2.4,0.8,2.4,2.4v14c0,6.4-3.2,9.7-9.7,9.7h-2.2C465.1,90.8,464.3,90,464.3,88.4z M507,51.5
	v-1.2h-2.4v5.8h9.4c1.6,0,2.4,0.8,2.4,2.4v4.3c0,0.7-0.2,1.4-0.5,1.9l-6.6,11.7l4.7,3.1c1.6,1,2.4,2.4,2.4,4v5.8
	c0,1.6-0.8,1.9-2.4,0.8l-9-6l-2.4,4.2c-0.9,1.6-2.1,2.4-3.7,2.4h-7c-1.6,0-2-0.8-1.1-2.4l5.6-10l-3.7-2.5V81c0,6.4-3.2,9.7-9.7,9.7
	h-2.2c-1.6,0-2.4-0.8-2.4-2.4v-3.9c0-1.6,0.4-2.4,1.2-2.4c0.8,0,1.2-0.8,1.2-2.4V44c0-1.6,0.8-2.4,2.4-2.4H495v-1.7
	c0-1.6,0.8-2.4,2.4-2.4h7c1.6,0,2.4,0.8,2.4,2.4v1.7h7c1.6,0,2.4,0.8,2.4,2.4v7.5c0,1.6-0.8,2.4-2.4,2.4h-4.6
	C507.8,53.9,507,53.1,507,51.5z M492.8,50.3v5.8h2.4v-5.8H492.8z M492.8,65.4l8,5.4l3.3-6h-11.4v0.6H492.8z"/>
<path d="M522.4,41.1c0-1.6,0.8-2.4,2.4-2.4h8.2c1.6,0,2.4,0.8,2.4,2.4v47.3c0,1.6-0.8,2.4-2.4,2.4h-8.2c-1.6,0-2.4-0.8-2.4-2.4V41.1
	z M540.3,56.1c-1.6,0-2.4-0.8-2.4-2.4v-3.9c0-1.6,0.8-2.4,2.4-2.4h13v-6.3c0-1.6,0.8-2.4,2.4-2.4h8.2c1.6,0,2.4,0.8,2.4,2.4v6.3h5.8
	c1.6,0,2.4,0.8,2.4,2.4v3.9c0,1.6-0.8,2.4-2.4,2.4h-5.8v8.7h5.8c1.6,0,2.4,0.8,2.4,2.4V71c0,1.6-0.8,2.4-2.4,2.4h-5.8v7.7
	c0,6.4-3.2,9.7-9.7,9.7h-9.2c-6.4,0-9.7-3.2-9.7-9.7v-6.8c0-6.4,3.2-9.7,9.7-9.7h5.8v-8.7h-12.9V56.1z M553.3,80.9v-7.5h-1.2
	c-0.8,0-1.2,0.4-1.2,1.2v6.3c0,0.8,0.4,1.2,1.2,1.2C552.9,82.1,553.3,81.7,553.3,80.9z"/>
<path d="M580.3,88.4l3.4-3.9c1.4-1.6,2.9-2.4,4.5-2.4h9.4c1.6,0,1.7,0.8,0.3,2.4l-3.4,3.9c-1.4,1.6-2.9,2.4-4.5,2.4h-9.4
	C579,90.8,578.9,90,580.3,88.4z M580.4,51.9c-1.6,0-1.6-0.8,0.2-2.4l9.2-8.5c1.7-1.6,3.4-2.4,5-2.4h27.7c1.6,0,2.4,0.8,2.4,2.4v3.9
	c0,1-0.4,1.8-1.1,2.4l-2.4,2.2h5.1c1.6,0,2.4,0.8,2.4,2.4v26.3c0,1.6-0.8,2.4-2.4,2.4h-8.2h-26.1H584c-1.6,0-2.4-0.8-2.4-2.4V51.9
	H580.4z M616,56.1h-21.3v2.2H616V56.1z M616,64h-21.3v2.2H616V64z M616,72h-21.3v2.2H616V72z M609.6,47.4h-12.4l-2.4,2.2h12.4
	L609.6,47.4z M630.5,88.4c1.4,1.6,1.3,2.4-0.3,2.4h-9.4c-1.6,0-3.1-0.8-4.5-2.4l-3.4-3.9c-1.4-1.6-1.3-2.4,0.3-2.4h9.4
	c1.6,0,3.1,0.8,4.5,2.4L630.5,88.4z"/>
<path d="M635,41.1c0-1.6,0.8-2.4,2.4-2.4h8.2c1.6,0,2.4,0.8,2.4,2.4v47.3c0,1.6-0.8,2.4-2.4,2.4h-8.2c-1.6,0-2.4-0.8-2.4-2.4V41.1z
	 M652.8,88.4v-3.9c0-1.6,0.8-2.4,2.4-2.4h9.9c1.6,0,2.4-0.8,2.4-2.4V60.4h-12.3c-1.6,0-2.4-0.8-2.4-2.4v-3.9c0-1.6,0.8-2.4,2.4-2.4
	h12.3V41.1c0-1.6,0.8-2.4,2.4-2.4h8.2c1.6,0,2.4,0.8,2.4,2.4v10.6h4.1c1.6,0,2.4,0.8,2.4,2.4V58c0,1.6-0.8,2.4-2.4,2.4h-4.1v20.8
	c0,6.4-3.2,9.7-9.7,9.7h-15.7C653.6,90.8,652.8,90,652.8,88.4z"/>
<path d="M689.4,53.6v-3.9c0-1.6,0.8-2.4,2.4-2.4h8.1l2.3-6.3c0.6-1.6,1.7-2.4,3.3-2.4h8.2c1.6,0,2.1,0.8,1.5,2.4l-2.3,6.3h2.5
	c1.6,0,2.4,0.8,2.4,2.4v3.9c0,1.6-0.8,2.4-2.4,2.4h-5.7l-7.1,19.3c-0.6,1.6-1.7,2.4-3.3,2.4h-8.2c-1.6,0-2.1-0.8-1.5-2.4l7.1-19.3
	h-4.9C690.2,56.1,689.4,55.2,689.4,53.6z M733.3,81.2c0,6.4-3.2,9.7-9.7,9.7h-9.2c-6.4,0-9.7-3.2-9.7-9.7v-4.6
	c0-6.4,3.2-9.7,9.7-9.7h5.8v-15c0-1.6,0.8-2.4,2.4-2.4H739c1.6,0,2.4,0.8,2.4,2.4v3.9c0,1.6-0.8,2.4-2.4,2.4h-5.8v8.7h5.8
	c1.6,0,2.4,0.8,2.4,2.4v3.9c0,1.6-0.8,2.4-2.4,2.4h-5.8L733.3,81.2L733.3,81.2z M720.3,80.9v-5.3h-1.2c-0.8,0-1.2,0.4-1.2,1.2v4.1
	c0,0.8,0.4,1.2,1.2,1.2C719.9,82.1,720.3,81.7,720.3,80.9z"/>
<path d="M768.7,88.4c0,1.6-0.8,2.4-2.4,2.4h-10.4c-6.4,0-9.7-3.2-9.7-9.7V43.3c0-1.6,0.8-2.4,2.4-2.4h8.2c1.6,0,2.4,0.8,2.4,2.4
	v36.5c0,1.6,0.8,2.4,2.4,2.4h4.6c1.6,0,2.4,0.8,2.4,2.4L768.7,88.4L768.7,88.4z M776,43.3c0-1.6,0.8-2.4,2.4-2.4h10.4
	c6.4,0,9.7,3.2,9.7,9.7v33.6c0,1.6-0.8,2.4-2.4,2.4h-8.2c-1.6,0-2.4-0.8-2.4-2.4V51.9c0-1.6-0.8-2.4-2.4-2.4h-4.6
	c-1.6,0-2.4-0.8-2.4-2.4L776,43.3L776,43.3z"/>
<path d="M311.1,380.5v-34.3c0-1.6,0.8-2.4,2.4-2.4h36.7c6.4,0,9.7,3.2,9.7,9.7v27.1c0,1.6-0.8,2.4-2.4,2.4h-8.2
	c-1.6,0-2.4-0.8-2.4-2.4V355c0-1.6-0.8-2.4-2.4-2.4s-2.4,0.8-2.4,2.4v25.6c0,1.6-0.8,2.4-2.4,2.4h-8.2c-1.6,0-2.4-0.8-2.4-2.4V355
	c0-1.6-0.8-2.4-2.4-2.4s-2.4,0.8-2.4,2.4v25.6c0,1.6-0.8,2.4-2.4,2.4h-8.2C311.9,382.9,311.1,382.1,311.1,380.5z"/>
<path d="M392.8,343.8c6.4,0,9.7,3.2,9.7,9.7v27.1c0,1.6-0.8,2.4-2.4,2.4H373c-6.4,0-9.7-3.2-9.7-9.7v-6.8c0-6.4,3.2-9.7,9.7-9.7
	h15.2c0.8,0,1.2-0.4,1.2-1.2v-0.7c0-1.6-0.8-2.4-2.4-2.4h-21.3c-1.6,0-2.4-0.8-2.4-2.4v-3.9c0-1.6,0.8-2.4,2.4-2.4H392.8z
	 M376.4,371.8c0,1.6,0.8,2.4,2.4,2.4h9.4c0.8,0,1.2-0.5,1.2-1.4v-6c0-0.8-0.4-1.2-1.2-1.2h-9.4c-1.6,0-2.4,0.8-2.4,2.4V371.8z"/>
<path d="M415.7,367.7c-6.4,0-9.7-3.2-9.7-9.7v-4.6c0-6.4,3.2-9.7,9.7-9.7h27.1c1.6,0,2.4,0.8,2.4,2.4v3.9c0,1.6-0.8,2.4-2.4,2.4
	h-21.3c-1.6,0-2.4,0.8-2.4,2.4v1.7c0,1.6,0.8,2.4,2.4,2.4h14c6.4,0,9.7,3.2,9.7,9.7v4.6c0,6.4-3.2,9.7-9.7,9.7h-27.1
	c-1.6,0-2.4-0.8-2.4-2.4v-3.9c0-1.6,0.8-2.4,2.4-2.4h21.3c1.6,0,2.4-0.8,2.4-2.4v-1.7c0-1.6-0.8-2.4-2.4-2.4H415.7z"/>
<path d="M487.7,346.2v34.3c0,1.6-0.8,2.4-2.4,2.4h-27.1c-6.4,0-9.7-3.2-9.7-9.7v-27.1c0-1.6,0.8-2.4,2.4-2.4h8.2
	c1.6,0,2.4,0.8,2.4,2.4v25.6c0,1.6,0.8,2.4,2.4,2.4h8.2c1.6,0,2.4-0.8,2.4-2.4v-25.6c0-1.6,0.8-2.4,2.4-2.4h8.2
	C486.9,343.8,487.7,344.6,487.7,346.2z"/>
<path d="M491.2,373.3v-19.8c0-6.4,3.2-9.7,9.7-9.7h19.8c6.4,0,9.7,3.2,9.7,9.7v19.8c0,6.4-3.2,9.7-9.7,9.7h-19.8
	C494.4,382.9,491.2,379.7,491.2,373.3z M506.7,374.2h8.2c1.6,0,2.4-0.8,2.4-2.4v-16.9c0-1.6-0.8-2.4-2.4-2.4h-8.2
	c-1.6,0-2.4,0.8-2.4,2.4v16.9C504.3,373.4,505.1,374.2,506.7,374.2z"/>
<path d="M533.8,365.6v-3.9c0-1.6,0.8-2.4,2.4-2.4H551c1.6,0,2.4,0.8,2.4,2.4v3.9c0,1.6-0.8,2.4-2.4,2.4h-14.7
	C534.6,368.1,533.8,367.3,533.8,365.6z"/>
<path d="M566.5,382.9c-6.4,0-9.7-3.2-9.7-9.7v-19.8c0-6.4,3.2-9.7,9.7-9.7h27.1c1.6,0,2.4,0.8,2.4,2.4v3.9c0,1.6-0.8,2.4-2.4,2.4
	h-21.3c-1.6,0-2.4,0.8-2.4,2.4v16.9c0,1.6,0.8,2.4,2.4,2.4h21.3c1.6,0,2.4,0.8,2.4,2.4v3.9c0,1.6-0.8,2.4-2.4,2.4h-27.1V382.9z"/>
<path d="M609.2,382.9c-6.4,0-9.7-3.2-9.7-9.7v-19.8c0-6.4,3.2-9.7,9.7-9.7H629c6.4,0,9.7,3.2,9.7,9.7v14c0,1.6-0.8,2.4-2.4,2.4
	h-22.5c-0.8,0-1.2,0.4-1.2,1.2v0.7c0,1.6,0.8,2.4,2.4,2.4h21.3c1.6,0,2.4,0.8,2.4,2.4v3.9c0,1.6-0.8,2.4-2.4,2.4h-27.1V382.9z
	 M625.6,354.9c0-1.6-0.8-2.4-2.4-2.4H615c-1.6,0-2.4,0.8-2.4,2.4v5.1c0,0.8,0.4,1.2,1.2,1.2h10.6c0.8,0,1.2-0.4,1.2-1.2V354.9z"/>
<path d="M642.1,380.5v-47.3c0-1.6,0.8-2.4,2.4-2.4h8.2c1.6,0,2.4,0.8,2.4,2.4v47.3c0,1.6-0.8,2.4-2.4,2.4h-8.2
	C642.9,382.9,642.1,382.1,642.1,380.5z"/>
<path d="M658.6,380.5v-47.3c0-1.6,0.8-2.4,2.4-2.4h8.2c1.6,0,2.4,0.8,2.4,2.4v47.3c0,1.6-0.8,2.4-2.4,2.4H661
	C659.4,382.9,658.6,382.1,658.6,380.5z"/>
<path d="M675.2,373.3v-19.8c0-6.4,3.2-9.7,9.7-9.7h19.8c6.4,0,9.7,3.2,9.7,9.7v19.8c0,6.4-3.2,9.7-9.7,9.7h-19.8
	C678.4,382.9,675.2,379.7,675.2,373.3z M690.6,374.2h8.2c1.6,0,2.4-0.8,2.4-2.4v-16.9c0-1.6-0.8-2.4-2.4-2.4h-8.2
	c-1.6,0-2.4,0.8-2.4,2.4v16.9C688.2,373.4,689,374.2,690.6,374.2z"/>
<path d="M748.9,356.4c0.5,0.6,0.6,1.3,0.5,2s-0.5,1.3-1.2,1.8l-5.1,3.4c-0.4,0.2-0.5,0.6-0.3,1s0.4,0.6,0.8,0.6c0,0,0,0,0.1,0h0.1
	l6-1l12.4-2.6c0.3,0,0.4-0.1,0.6-0.1c0.6,0,1.2,0.2,1.7,0.6s0.8,1,0.9,1.6c0.1,0.7-0.1,1.3-0.5,1.9s-1,1-1.7,1.1l-9.7,2.6l13.3-1.7
	h0.3c0.7,0,1.3,0.2,1.8,0.6s0.8,0.9,1,1.6c0.1,0.8-0.1,1.4-0.5,2s-1.1,0.9-1.8,1l-14.4,1.8h12.2c0.7,0,1.4,0.2,1.9,0.7
	c0.6,0.5,0.8,1.1,0.9,1.8c0,0.8-0.2,1.4-0.7,2s-1.2,0.8-1.9,0.8h-12.4l7.2,0.9c0.7,0.1,1.3,0.4,1.8,0.9s0.7,1.1,0.7,1.8
	c0,0.7-0.3,1.4-0.8,1.9s-1.1,0.8-1.9,0.8H760l-9.7-0.9l-14.5-1.5c-0.6-0.1-1.1-0.3-1.5-0.7c-0.4-0.4-0.7-0.9-0.8-1.5l-2-11.4
	c-0.2-1.1,0.1-2.1,0.8-2.9l4-4.7c0.9-1,1.9-1.9,3-2.7l6.1-4.1c0.5-0.3,1-0.5,1.6-0.5C747.7,355.3,748.4,355.7,748.9,356.4z
	 M750.2,358.5c0.2-1,0-1.9-0.6-2.7l-0.1-0.1c-0.1,0-0.1-0.1-0.1-0.1l3.9-4.1c0.5-0.5,1.1-0.8,1.8-0.9s1.3,0.1,1.9,0.5
	c0.6,0.5,0.9,1,1,1.8c0.1,0.7-0.1,1.4-0.5,1.9c0,0,0,0.1-0.1,0.1l-0.1,0.1l-6.6,7.2l-1,1l-0.1,0.1l-6,1l5.1-3.4
	C749.5,360.3,750,359.5,750.2,358.5z M725.1,346.5c0.5-0.5,1.1-0.8,1.8-0.8c0.8,0,1.4,0.3,1.9,0.9s0.8,1.2,0.7,2l-0.3,6.2
	c0,0.3,0.1,0.5,0.3,0.7s0.5,0.3,0.7,0.2c0.3,0,0.5-0.2,0.6-0.5l2.8-5.4l5.3-11.4c0.3-0.7,0.8-1.2,1.5-1.4s1.4-0.2,2.1,0.2
	c0.6,0.3,1,0.8,1.2,1.5s0.2,1.4-0.1,2l-3.8,9.3l6.6-11.6c0.4-0.6,0.9-1,1.6-1.3c0.7-0.2,1.4-0.2,2,0.2c0.7,0.3,1.1,0.9,1.3,1.6
	s0.1,1.4-0.3,2.1l-7.2,12.5l7.3-9.7c0.4-0.6,1-1,1.7-1.1s1.4,0,2,0.4s1,1,1.1,1.8c0.1,0.7,0,1.4-0.5,2l-6.5,8.6
	c-0.7-0.7-1.5-1-2.4-1c-0.8,0-1.5,0.2-2.1,0.6l-6.1,4.1c-1.2,0.8-2.3,1.7-3.2,2.8l-4,4.7c-0.8,0.9-1.1,1.9-1.1,3l-2.9-1.5
	c-1-0.5-1.6-1.3-1.8-2.4l-1.3-6c-0.3-1.4-0.4-2.7-0.3-4.1l0.4-7.3C724.3,347.6,724.5,347,725.1,346.5z"/>
<path d="M277.2,355.3c0.6,0,1.1,0.2,1.6,0.5l6.1,4.1c1.1,0.7,2.1,1.6,3,2.7l4,4.7c0.7,0.8,1,1.8,0.8,2.9l-2,11.4
	c-0.1,0.6-0.4,1.1-0.8,1.5s-0.9,0.6-1.5,0.7l-14.5,1.5l-9.7,0.9H264c-0.7,0-1.3-0.3-1.9-0.8c-0.5-0.5-0.8-1.1-0.8-1.9
	c0-0.7,0.2-1.3,0.7-1.8s1.1-0.8,1.8-0.9l7.2-0.9h-12.4c-0.8,0-1.4-0.3-1.9-0.8s-0.8-1.2-0.7-2c0-0.7,0.3-1.3,0.9-1.8
	s1.2-0.7,1.9-0.7H271l-14.4-1.8c-0.8-0.1-1.4-0.4-1.8-1c-0.5-0.6-0.6-1.3-0.5-2c0.1-0.6,0.4-1.2,1-1.6c0.5-0.4,1.1-0.6,1.8-0.6h0.3
	l13.3,1.7l-9.7-2.6c-0.7-0.2-1.3-0.6-1.7-1.1c-0.4-0.6-0.6-1.2-0.5-1.9c0.1-0.7,0.4-1.2,0.9-1.6s1.1-0.6,1.7-0.6
	c0.1,0,0.3,0,0.6,0.1l12.4,2.6l6,1c0,0,0,0,0.1,0h0.1c0.4,0,0.7-0.2,0.8-0.6s0-0.8-0.3-1l-5.1-3.4c-0.6-0.4-1-1-1.2-1.8
	c-0.1-0.7,0-1.4,0.5-2C275.6,355.7,276.3,355.3,277.2,355.3z M275.3,360.9l5.1,3.4l-6-1l-0.1-0.1l-1-1l-6.6-7.2c0,0,0-0.1-0.1-0.1
	l-0.1-0.1c-0.4-0.6-0.6-1.2-0.5-1.9c0.1-0.7,0.4-1.3,1-1.8c0.6-0.4,1.2-0.6,1.9-0.5c0.7,0.1,1.3,0.4,1.8,0.9l3.9,4.1l-0.1,0.1
	c-0.1,0-0.1,0.1-0.1,0.1c-0.6,0.8-0.8,1.7-0.6,2.7S274.5,360.3,275.3,360.9z M299.8,348.4l0.4,7.3c0.1,1.3,0,2.7-0.3,4.1l-1.3,6
	c-0.2,1.1-0.8,1.9-1.8,2.4l-2.9,1.5c0-1.1-0.3-2.1-1.1-3l-4-4.7c-1-1.1-2-2.1-3.2-2.8l-6.1-4.1c-0.6-0.4-1.3-0.6-2.1-0.6
	c-0.9,0-1.7,0.3-2.4,1l-6.5-8.6c-0.5-0.6-0.6-1.3-0.5-2s0.5-1.3,1.1-1.8c0.6-0.4,1.3-0.5,2-0.4s1.3,0.5,1.7,1.1l7.3,9.7l-7.2-12.5
	c-0.4-0.6-0.5-1.3-0.3-2.1c0.2-0.7,0.6-1.3,1.3-1.6c0.6-0.3,1.3-0.4,2-0.2c0.7,0.2,1.2,0.6,1.6,1.3l6.6,11.6l-3.8-9.3
	c-0.3-0.6-0.3-1.3-0.1-2c0.2-0.7,0.6-1.2,1.2-1.5c0.7-0.3,1.4-0.4,2.1-0.2s1.2,0.7,1.5,1.4l5.3,11.4l2.8,5.4
	c0.1,0.3,0.4,0.4,0.6,0.5c0.3,0,0.5,0,0.7-0.2s0.3-0.4,0.3-0.7l-0.3-6.2c0-0.8,0.2-1.4,0.7-2s1.1-0.8,1.9-0.9c0.7,0,1.3,0.3,1.8,0.8
	S299.7,347.6,299.8,348.4z"/>
<path d="M128.6,111.4c0-6.4,3.2-9.7,9.7-9.7h32.9c6.4,0,9.7,3.2,9.7,9.7v15.5h68.6c6.4,0,9.7,3.2,9.7,9.7V152c0,6.4-3.2,9.7-9.7,9.7
	h-68.6v9.7h68.6c6.4,0,9.7,3.2,9.7,9.7v15.5c0,6.4-3.2,9.7-9.7,9.7h-68.6v10.4l58.9,27.5c6.4,3.2,9.7,8.1,9.7,14.5V278
	c0,6.4-3.2,8.1-9.7,4.8l-58.9-27.5V272c0,25.8-12.9,38.7-38.7,38.7H89c-25.8,0-38.7-12.9-38.7-38.7v-18.4
	c0-25.8,12.9-38.7,38.7-38.7h39.6v-8.7H60c-6.4,0-9.7-3.2-9.7-9.7V181c0-6.4,3.2-9.7,9.7-9.7h68.6v-9.7H60c-6.4,0-9.7-3.2-9.7-9.7
	v-15.5c0-6.4,3.2-9.7,9.7-9.7h68.6V111.4z M128.6,270.8v-16.4c0-3.2-1.6-4.8-4.8-4.8h-16.4c-3.2,0-4.8,1.6-4.8,4.8v16.4
	c0,3.2,1.6,4.8,4.8,4.8h16.4C127,275.7,128.6,274.1,128.6,270.8z"/>
<path d="M264.1,178.2v-12.9c0-5.4,2.7-8.1,8.1-8.1h56v-12.9c0-5.4,2.7-8.1,8.1-8.1h27.4c5.4,0,8.1,2.7,8.1,8.1v12.9h27.4
	c5.4,0,8.1,2.7,8.1,8.1v12.9c0,5.4-2.7,8.1-8.1,8.1h-27.4V278c0,21.5-10.7,32.2-32.2,32.2h-27.4c-5.4,0-8.1-2.7-8.1-8.1v-12.9
	c0-5.4,2.7-8.1,8.1-8.1h8.1c5.4,0,8.1-2.7,8.1-8.1v-6.4H297c-21.5,0-32.2-10.7-32.2-32.2v-8.1c0-21.5,10.7-32.2,32.2-32.2h31.4V186
	h-56C266.8,186.2,264.1,183.6,264.1,178.2z M316.1,237.8h4c5.4,0,8.1-2.4,8.1-7.2s-2.7-7.2-8.1-7.2h-4c-5.4,0-8.1,2.4-8.1,7.2
	S310.7,237.8,316.1,237.8z"/>
<path d="M390.7,210.8v-10.3c0-4.3,2.1-6.4,6.4-6.4H432v-16.7c0-4.3,2.1-6.4,6.4-6.4h21.9c4.3,0,6.4,2.1,6.4,6.4v16.7h11
	c4.3,0,6.4,2.1,6.4,6.4v10.3c0,4.3-2.1,6.4-6.4,6.4h-11v11.6h37.4c17.2,0,25.8,8.6,25.8,25.8v29.6c0,17.2-8.6,25.8-25.8,25.8h-21.9
	c-4.3,0-6.4-2.1-6.4-6.4v-10.3c0-4.3,2.1-6.4,6.4-6.4h6.4c4.3,0,6.4-2.1,6.4-6.4v-21.9c0-4.3-2.1-6.4-6.4-6.4h-21.9v32.2
	c0,17.2-8.6,25.8-25.8,25.8h-24.5c-17.2,0-25.8-8.6-25.8-25.8v-29.6c0-17.2,8.6-25.8,25.8-25.8H432v-11.6h-34.8
	C392.9,217.3,390.7,215.1,390.7,210.8z M432,283.6V252h-3.2c-2.1,0-3.2,1.1-3.2,3.2v28.3c0,2.1,1.1,3.2,3.2,3.2
	C430.9,286.8,432,285.8,432,283.6z M494.9,216l-6.1-38.7c-0.8-4.3,1-6.4,5.3-6.4H516c4.3,0,6.8,2.1,7.6,6.4l6.1,38.7
	c0.7,4.3-1,6.4-5.3,6.4h-21.9C498.2,222.4,495.7,220.3,494.9,216z"/>
<path d="M545.3,246.7c0-4.3,2.1-6.4,6.4-6.4H580c4.3,0,6.4,2.1,6.4,6.4v21.9c0,4.3-2.1,6.4-6.4,6.4h-28.3c-4.3,0-6.4-2.1-6.4-6.4
	V246.7z"/>
<path d="M572.1,216.4v-16.1c0-5.4,2.7-8.5,8.1-9.5l35.4-5.6v-44.9c0-5.4,2.7-8.1,8.1-8.1H651c5.4,0,8.1,2.7,8.1,8.1v37.8l78.9-12.7
	c5.4-0.9,8.1,1.3,8.1,6.6v72.1c0,5.4-2.7,8.1-8.1,8.1h-27.4c-5.4,0-8.1-2.7-8.1-8.1v-40.9l-43.5,7V273c0,5.4,2.7,8.1,8.1,8.1H738
	c5.4,0,8.1,2.7,8.1,8.1v12.9c0,5.4-2.7,8.1-8.1,8.1h-90.2c-21.5,0-32.2-10.7-32.2-32.2v-60.6l-35.4,5.6
	C574.8,224,572.1,221.8,572.1,216.4z"/>
<path d="M765,111.4c0-6.4,3.2-9.7,9.7-9.7H964c6.4,0,9.7,3.2,9.7,9.7v189.4c0,6.4-3.2,9.7-9.7,9.7H774.6c-6.4,0-9.7-3.2-9.7-9.7
	V111.4H765z"/>
<path class="st0" d="M848.6,164.6c2.4,6.9,5.8,13.7,7.1,20.8c2,11.2,2.6,22.6,3.8,33.9c0.3,2.4,0.6,4.7,1,7.1
	c0.6,4.6,1.7,8.4,7.9,8.2c1.8-0.1,4.4,2.7,5.3,4.7c0.5,1.3-1.2,4.1-2.7,5.4c-6.1,5.7-11.6,4.7-17.1-2.1c-5.3-6.5-5.5-14-4.5-21.4
	c2.1-16.5-0.5-32.6-3.1-48.7c-0.4-2.4-0.3-4.9-0.4-7.3C846.7,165,847.7,164.8,848.6,164.6z"/>
<path class="st0" d="M810.9,200.7c-12.4,1-21.3-3.9-27.5-14.1c-2.7-4.5-2.9-9.2,1.7-12.2c4.8-3.1,10-6.5,15.5-7.4
	c8.9-1.6,18.3-2.5,27.2-1.5c13.8,1.6,17.7,14.5,8.5,25.1C829.4,198.5,820.5,200.9,810.9,200.7z M820.1,167.3
	c-8.8,1.6-17.2,2.5-25.4,4.6c-10.2,2.6-11.9,10.5-4.7,18.1c7.5,7.9,16.8,7.7,26.5,6.6c13.4-1.5,18.8-6.7,20.7-19.9
	c0.2-1.6-1-4.6-2.3-5.1C830.1,169.8,824.9,168.7,820.1,167.3z"/>
<path class="st0" d="M917.2,189.6c-9.5-0.1-17.8-1.3-24.1-7.5c-2.9-2.8-5.1-6.8-6.3-10.6c-1.6-5.3,1-9.8,6.1-12.1
	c14.4-6.3,29.3-5.9,44.2-2.1c6.8,1.7,9.5,9.3,5.9,15.6C937.1,183.2,929,190.4,917.2,189.6z M920.4,157.8c-6.4,0.7-11.5,1.2-16.6,2
	c-2.7,0.4-5.3,1.5-7.9,2.3c-4.4,1.4-6,4.9-5.3,9.1c0.7,4.4,2.7,8.1,7.2,10.4c7.4,3.7,15.1,4.6,23,3.7c10.2-1.2,16.6-6.9,19.5-16.7
	c1.2-4,0-6.6-3.9-7.6C930.8,159.7,925,158.7,920.4,157.8z"/>
<path class="st0" d="M929,131.8c-17.5,1.9-33.8,3.6-51.8,5.5c2.6-2,4.1-4,6.1-4.5c13.4-3.5,27.1-4.1,40.9-3.2
	C925.5,129.7,926.8,130.8,929,131.8z"/>
<path class="st0" d="M831.5,143.4c-14.6,1.5-28.5,2.9-42.5,4.3C792.2,140.8,824.6,137.2,831.5,143.4z"/>
<path class="st0" d="M889.9,265.3c-6.4,14.6-22.9,17.2-31.6,12.7c-1.4-0.8-3.1-1.5-4.1-2.7c-1.4-1.7-2.2-3.9-3.2-5.9
	c1.9-0.8,3.7-2.1,5.7-2.3c7.8-1,15.6-1.9,23.4-2.5C883.2,264.4,886.2,265,889.9,265.3z M884.3,266.8c-10,1.4-19.3,2.7-29,4.1
	C862.5,279.4,879.9,277.1,884.3,266.8z"/>
<polygon class="st0" points="817,175.9 818.6,176.5 818.6,178.2 817,179.2 815,177.5 815,176.7 "/>
<polygon class="st0" points="912.7,165.7 914.3,166.3 914.3,168 912.7,169 910.7,167.3 910.7,166.5 "/>
</svg>
