<?xml version="1.0" encoding="utf-8"?>
<!-- Generator: Adobe Illustrator 22.0.1, SVG Export Plug-In . SVG Version: 6.00 Build 0)  -->
<svg version="1.1" id="レイヤー_1" xmlns="http://www.w3.org/2000/svg" xmlns:xlink="http://www.w3.org/1999/xlink" x="0px"
	 y="0px" viewBox="0 0 512 512" style="enable-background:new 0 0 512 512;" xml:space="preserve">
<style type="text/css">
	.st0{fill:#111111;}
	.st1{fill:#333333;}
	.st2{fill:#FFFFFF;}
</style>
<path class="st0" d="M0,64.7C0,50.2,7.9,43,23.7,43h464.6c15.8,0,23.7,7.2,23.7,21.7v425.6c0,14.5-7.9,21.7-23.7,21.7H23.7
	C7.9,512,0,504.8,0,490.3V64.7z"/>
<path d="M488.3,53c5.2,0,9,1,11,2.8c1.8,1.6,2.7,4.6,2.7,8.9v425.6c0,4.3-0.9,7.3-2.7,8.9c-2,1.8-5.8,2.8-11,2.8H23.7
	c-5.2,0-9-1-11-2.8c-1.8-1.6-2.7-4.6-2.7-8.9V64.7c0-4.3,0.9-7.3,2.7-8.9c2-1.8,5.8-2.8,11-2.8H488.3 M488.3,43H23.7
	C7.9,43,0,50.2,0,64.7v425.6C0,504.8,7.9,512,23.7,512h464.6c15.8,0,23.7-7.2,23.7-21.7V64.7C512,50.2,504.1,43,488.3,43L488.3,43z"
	/>
<path class="st1" d="M0,21.7C0,7.2,7.9,0,23.7,0h464.6C504.1,0,512,7.2,512,21.7v425.6c0,14.5-7.9,21.7-23.7,21.7H23.7
	C7.9,469,0,461.8,0,447.3V21.7z"/>
<path d="M488.3,10c5.2,0,9,1,11,2.8c1.8,1.6,2.7,4.6,2.7,8.9v425.6c0,4.3-0.9,7.3-2.7,8.9c-2,1.8-5.8,2.8-11,2.8H23.7
	c-5.2,0-9-1-11-2.8c-1.8-1.6-2.7-4.6-2.7-8.9V21.7c0-4.3,0.9-7.3,2.7-8.9c2-1.8,5.8-2.8,11-2.8H488.3 M488.3,0H23.7
	C7.9,0,0,7.2,0,21.7v425.6C0,461.8,7.9,469,23.7,469h464.6c15.8,0,23.7-7.2,23.7-21.7V21.7C512,7.2,504.1,0,488.3,0L488.3,0z"/>
<path class="st2" d="M220.9,145.2c5.8,15.4,14,30.4,17,46.3c4.8,24.8,6.1,50.1,9,75.2c0.6,5.3,1.5,10.5,2.3,15.7
	c1.5,10.2,4.1,18.7,18.9,18.3c4.3-0.1,10.6,5.9,12.6,10.5c1.2,2.8-2.9,9-6.4,12c-14.7,12.6-27.9,10.3-41-4.6
	c-12.7-14.4-13.1-31.1-10.8-47.5c5.2-36.7-1.2-72.3-7.5-108.2c-0.9-5.3-0.6-10.8-0.9-16.2C216.4,146.2,218.6,145.7,220.9,145.2z"/>
<path class="st2" d="M130.4,225.4c-29.7,2.3-51.2-8.6-66-31.3c-6.5-9.9-7-20.4,4.1-27.1c11.5-6.9,24.1-14.4,37.2-16.5
	c21.4-3.5,43.9-5.6,65.3-3.3c33,3.5,42.4,32.1,20.3,55.8C174.9,220.5,153.5,225.8,130.4,225.4z M152.4,151.3
	c-21.2,3.5-41.4,5.7-60.8,10.3C67.2,167.4,63,185,80.3,201.8c18,17.6,40.4,17.2,63.6,14.7c32.1-3.4,45.2-14.8,49.6-44.3
	c0.5-3.6-2.4-10.3-5.5-11.4C176.4,156.7,164,154.3,152.4,151.3z"/>
<path class="st2" d="M385.4,200.7c-22.9-0.3-42.8-3-57.8-16.6c-6.8-6.2-12.2-15-15.1-23.5c-3.9-11.7,2.5-21.8,14.7-26.8
	c34.6-14,70.4-13.2,106.1-4.7c16.4,3.9,22.8,20.6,14.1,34.7C433.2,186.6,413.8,202.4,385.4,200.7z M393.2,130.2
	c-15.4,1.6-27.7,2.6-39.9,4.4c-6.5,1-12.7,3.3-19,5.2c-10.6,3.2-14.4,11-12.7,20.1c1.8,9.8,6.6,18.1,17.3,23.1
	c17.7,8.2,36.1,10.1,55.2,8.1c24.5-2.6,39.9-15.2,46.8-37c2.8-8.8,0.1-14.7-9.4-16.8C418,134.3,404.1,132.2,393.2,130.2z"/>
<path class="st2" d="M413.8,72.4c-42.1,4.1-81.2,7.9-124.4,12.2c6.2-4.4,9.9-8.9,14.6-10c32.2-7.8,65-9.2,98.1-7.1
	C405.4,67.7,408.5,70.1,413.8,72.4z"/>
<path class="st2" d="M179.8,98.1c-34.9,3.3-68.3,6.4-101.9,9.6C85.5,92.3,163.3,84.4,179.8,98.1z"/>
<path class="st2" d="M320,368.7c-15.2,32.4-55,38.2-75.7,28.1c-3.5-1.7-7.4-3.3-9.7-5.9c-3.3-3.8-5.2-8.6-7.7-13
	c4.6-1.8,9-4.6,13.7-5.1c18.7-2.3,37.4-4.2,56.2-5.5C303.8,366.7,311,368.1,320,368.7z M306.6,372.2c-24,3.1-46.2,6-69.5,9
	C254.1,400.2,296,394.9,306.6,372.2z"/>
<polygon class="st2" points="145.1,170.2 149,171.7 149,175.3 145.1,177.5 140.4,173.9 140.4,172.1 "/>
<polygon class="st2" points="374.7,147.6 378.6,149.1 378.6,152.7 374.7,154.9 369.9,151.3 369.9,149.4 "/>
</svg>
